<svg width="20" height="18" viewBox="0 0 20 18" fill="none" xmlns="http://www.w3.org/2000/svg">
<path d="M10 0L0 4.66667L2.66667 5.86667V8.13333C1.86667 8.4 1.33333 9.2 1.33333 10C1.33333 10.8 1.86667 11.6 2.66667 11.8667V12L1.46667 14.8C1.06667 16 1.33333 17.3333 3.33333 17.3333C5.33333 17.3333 5.6 16 5.2 14.8L4 12C4.8 11.6 5.33333 10.9333 5.33333 10C5.33333 9.06667 4.8 8.4 4 8.13333V6.53333L10 9.33333L20 4.66667L10 0ZM15.8667 8.66667L9.86667 11.3333L6.66667 9.86667V10C6.66667 10.9333 6.26667 11.7333 5.6 12.4L6.4 14.2667V14.4C6.53333 14.9333 6.66667 15.4667 6.53333 16C7.46667 16.4 8.53333 16.6667 9.86667 16.6667C14.2667 16.6667 15.8667 14 15.8667 12.6667V8.66667Z" fill="black"/>
</svg>
