<svg width="17" height="15" viewBox="0 0 17 15" fill="none" xmlns="http://www.w3.org/2000/svg">
<path fill-rule="evenodd" clip-rule="evenodd" d="M6.04167 0C2.705 0 0 2.705 0 6.04167C0 13.5417 10 15 10 15V12.0833H10.625C13.9617 12.0833 16.6667 9.37833 16.6667 6.04167C16.6667 2.705 13.9617 0 10.625 0H6.04167ZM8.33333 7.29167C8.6096 7.29167 8.87455 7.18192 9.0699 6.98657C9.26525 6.79122 9.375 6.52627 9.375 6.25C9.375 5.97373 9.26525 5.70878 9.0699 5.51343C8.87455 5.31808 8.6096 5.20833 8.33333 5.20833C8.05707 5.20833 7.79211 5.31808 7.59676 5.51343C7.40141 5.70878 7.29167 5.97373 7.29167 6.25C7.29167 6.52627 7.40141 6.79122 7.59676 6.98657C7.79211 7.18192 8.05707 7.29167 8.33333 7.29167ZM12.7083 6.25C12.7083 6.52627 12.5986 6.79122 12.4032 6.98657C12.2079 7.18192 11.9429 7.29167 11.6667 7.29167C11.3904 7.29167 11.1254 7.18192 10.9301 6.98657C10.7347 6.79122 10.625 6.52627 10.625 6.25C10.625 5.97373 10.7347 5.70878 10.9301 5.51343C11.1254 5.31808 11.3904 5.20833 11.6667 5.20833C11.9429 5.20833 12.2079 5.31808 12.4032 5.51343C12.5986 5.70878 12.7083 5.97373 12.7083 6.25ZM5 7.29167C5.27627 7.29167 5.54122 7.18192 5.73657 6.98657C5.93192 6.79122 6.04167 6.52627 6.04167 6.25C6.04167 5.97373 5.93192 5.70878 5.73657 5.51343C5.54122 5.31808 5.27627 5.20833 5 5.20833C4.72373 5.20833 4.45878 5.31808 4.26343 5.51343C4.06808 5.70878 3.95833 5.97373 3.95833 6.25C3.95833 6.52627 4.06808 6.79122 4.26343 6.98657C4.45878 7.18192 4.72373 7.29167 5 7.29167Z" fill="black"/>
</svg>
