<svg width="27" height="14" viewBox="0 0 27 14" fill="none" xmlns="http://www.w3.org/2000/svg">
<path d="M21.5625 6.5625C21.5625 6.81114 21.4637 7.0496 21.2879 7.22541C21.1121 7.40123 20.8736 7.5 20.625 7.5H5.625C5.37636 7.5 5.1379 7.40123 4.96209 7.22541C4.78627 7.0496 4.6875 6.81114 4.6875 6.5625C4.6875 6.31386 4.78627 6.0754 4.96209 5.89959C5.1379 5.72377 5.37636 5.625 5.625 5.625H20.625C20.8736 5.625 21.1121 5.72377 21.2879 5.89959C21.4637 6.0754 21.5625 6.31386 21.5625 6.5625ZM25.3125 0H0.9375C0.68886 0 0.450403 0.0987722 0.274587 0.274588C0.098772 0.450403 0 0.68886 0 0.9375C0 1.18614 0.098772 1.4246 0.274587 1.60041C0.450403 1.77623 0.68886 1.875 0.9375 1.875H25.3125C25.5611 1.875 25.7996 1.77623 25.9754 1.60041C26.1512 1.4246 26.25 1.18614 26.25 0.9375C26.25 0.68886 26.1512 0.450403 25.9754 0.274588C25.7996 0.0987722 25.5611 0 25.3125 0ZM15.9375 11.25H10.3125C10.0639 11.25 9.8254 11.3488 9.64959 11.5246C9.47377 11.7004 9.375 11.9389 9.375 12.1875C9.375 12.4361 9.47377 12.6746 9.64959 12.8504C9.8254 13.0262 10.0639 13.125 10.3125 13.125H15.9375C16.1861 13.125 16.4246 13.0262 16.6004 12.8504C16.7762 12.6746 16.875 12.4361 16.875 12.1875C16.875 11.9389 16.7762 11.7004 16.6004 11.5246C16.4246 11.3488 16.1861 11.25 15.9375 11.25Z" fill="black"/>
</svg>
