<svg width="18" height="15" viewBox="0 0 18 15" fill="none" xmlns="http://www.w3.org/2000/svg">
<path d="M16.8057 6.40301e-05H14.5835V1.66673C14.5835 1.99088 14.4547 2.30176 14.2255 2.53097C13.9963 2.76018 13.6854 2.88895 13.3613 2.88895C13.0371 2.88895 12.7262 2.76018 12.497 2.53097C12.2678 2.30176 12.139 1.99088 12.139 1.66673V6.40301e-05H5.66681V1.66673C5.66681 1.99088 5.53804 2.30176 5.30883 2.53097C5.07962 2.76018 4.76874 2.88895 4.44459 2.88895C4.12043 2.88895 3.80956 2.76018 3.58035 2.53097C3.35113 2.30176 3.22237 1.99088 3.22237 1.66673V6.40301e-05H1.00014C0.867934 -0.00144049 0.736765 0.0235828 0.614395 0.073654C0.492025 0.123725 0.380939 0.197828 0.287706 0.291578C0.194473 0.385329 0.120987 0.496824 0.0715947 0.61947C0.0222022 0.742115 -0.00209414 0.873421 0.000142806 1.00562V13.439C-0.00206442 13.5688 0.021334 13.6979 0.0690015 13.8187C0.116669 13.9395 0.187672 14.0497 0.277955 14.1431C0.368238 14.2365 0.476031 14.3112 0.59518 14.3629C0.714328 14.4146 0.842497 14.4423 0.972365 14.4445H16.8057C16.9356 14.4423 17.0637 14.4146 17.1829 14.3629C17.302 14.3112 17.4098 14.2365 17.5001 14.1431C17.5904 14.0497 17.6614 13.9395 17.7091 13.8187C17.7567 13.6979 17.7801 13.5688 17.7779 13.439V1.00562C17.7801 0.875752 17.7567 0.746722 17.7091 0.625898C17.6614 0.505075 17.5904 0.394826 17.5001 0.301448C17.4098 0.208069 17.302 0.133391 17.1829 0.0816795C17.0637 0.0299675 16.9356 0.00223437 16.8057 6.40301e-05ZM13.3001 5.87784L7.92792 11.2501L5.00014 8.30006C4.87043 8.1574 4.80017 7.97055 4.80375 7.77777C4.80732 7.58499 4.88447 7.40087 5.01938 7.26312C5.15429 7.12537 5.33676 7.0444 5.52943 7.03681C5.72209 7.02922 5.91037 7.09558 6.0557 7.22229L7.93348 9.10006L12.2224 4.81117C12.2928 4.74077 12.3763 4.68492 12.4683 4.64682C12.5603 4.60872 12.6589 4.58911 12.7585 4.58911C12.858 4.58911 12.9566 4.60872 13.0486 4.64682C13.1406 4.68492 13.2242 4.74077 13.2946 4.81117C13.365 4.88158 13.4208 4.96516 13.4589 5.05715C13.497 5.14913 13.5167 5.24772 13.5167 5.34729C13.5167 5.44685 13.497 5.54544 13.4589 5.63743C13.4208 5.72941 13.365 5.81299 13.2946 5.8834L13.3001 5.87784Z" fill="black"/>
</svg>
